<svg fill="none" height="92" viewBox="0 0 92 92" width="92" xmlns="http://www.w3.org/2000/svg"><rect fill="#fff" height="90.5618" rx="45.28" stroke="#c4cfe3" width="90.56" x=".5" y=".623047"/><path d="m48.8457 46.1222 4.9711 5.4166 6.6844 4.0722 1.1655-9.4555-1.1655-9.2444-6.8126 3.5778z" fill="#00832d"/><path d="m20 54.734v8.0556c0 1.8416 1.5648 3.3333 3.4966 3.3333h8.4503l1.7483-6.0889-1.7483-5.3-5.7986-1.6666z" fill="#0066da"/><path d="m31.9469 26.123-11.9469 11.3889 6.1483 1.6666 5.7986-1.6666 1.7192-5.2278z" fill="#e94235"/><path d="m31.9469 37.5127h-11.9469v17.2221h11.9469z" fill="#2684fc"/><path d="m68.1395 30.9456-7.6343 5.9666v18.6999l7.6693 5.9944c1.1481.8556 2.8265.075 2.8265-1.3166v-28.0555c0-1.4083-1.7163-2.1805-2.8615-1.2888zm-19.2898 15.1777v8.611h-16.9005v11.3889h25.0593c1.9319 0 3.4967-1.4917 3.4967-3.3333v-7.1778z" fill="#00ac47"/><path d="m57.0085 26.123h-25.0593v11.3889h16.9005v8.6111l11.6555-9.2056v-7.461c0-1.8417-1.5648-3.3334-3.4967-3.3334z" fill="#ffba00"/></svg>